<svg width="42" height="43" viewBox="0 0 42 43" fill="none" xmlns="http://www.w3.org/2000/svg">
<path fill-rule="evenodd" clip-rule="evenodd" d="M21.0663 0.940186C15.8024 0.940186 11.0055 2.67874 8.16831 4.09988C7.91258 4.22793 7.6729 4.35341 7.45011 4.47481C7.00935 4.71504 6.63509 4.93928 6.33594 5.13589L9.56422 9.88826L11.0837 10.4932C17.0233 13.4901 24.9885 13.4901 30.9281 10.4932L32.6535 9.59802L35.7059 5.13589C35.2586 4.83768 34.64 4.47589 33.8788 4.09119C33.8324 4.06774 33.7855 4.04421 33.738 4.0206C30.913 2.61493 26.2327 0.940186 21.0663 0.940186ZM13.558 6.32019C12.3962 6.10584 11.2547 5.8102 10.1771 5.47101C12.8359 4.29039 16.7982 3.03804 21.0663 3.03804C24.0236 3.03804 26.8196 3.63934 29.1323 4.4007C26.422 4.78328 23.5298 5.42912 20.7748 6.22613C18.607 6.85327 16.073 6.78425 13.558 6.32019Z" fill="#8DD703"/>
<path fill-rule="evenodd" clip-rule="evenodd" d="M32.1595 12.2219L31.8738 12.366C25.3397 15.6628 16.6733 15.6628 10.1393 12.366L9.86763 12.2291C0.0524899 22.9994 -10.2445 43.1964 21.0669 42.8938C52.3568 42.5914 41.8986 22.6278 32.1595 12.2219ZM22.8165 19.8208H19.2265V21.499C18.0599 21.4963 16.9381 21.9185 16.0987 22.6762C15.2594 23.4336 14.7686 24.4669 14.7303 25.557C14.6921 26.6472 15.1093 27.7084 15.8936 28.5157C16.678 29.3231 17.7678 29.8132 18.9321 29.8821L19.2265 29.8905H22.8165L22.9781 29.9039C23.185 29.9389 23.3722 30.0408 23.507 30.1917C23.6418 30.3425 23.7158 30.533 23.7158 30.7296C23.7158 30.9262 23.6418 31.1167 23.507 31.2675C23.3722 31.4184 23.185 31.5203 22.9781 31.5553L22.8165 31.5687H15.6364V34.9253H19.2265V36.6036H22.8165V34.9253C23.9831 34.928 25.1049 34.5058 25.9443 33.7482C26.7836 32.9908 27.2744 31.9575 27.3126 30.8673C27.3509 29.7772 26.9337 28.716 26.1494 27.9086C25.365 27.1013 24.2752 26.6112 23.1109 26.5423L22.8165 26.5339H19.2265L19.0649 26.5205C18.858 26.4854 18.6707 26.3836 18.536 26.2326C18.4012 26.0818 18.3272 25.8913 18.3272 25.6948C18.3272 25.4982 18.4012 25.3077 18.536 25.1569C18.6707 25.0059 18.858 24.9041 19.0649 24.869L19.2265 24.8556H26.4066V21.499H22.8165V19.8208Z" fill="#8DD703"/>
</svg>
