<svg width="170" height="53" viewBox="0 0 170 53" fill="none" xmlns="http://www.w3.org/2000/svg">
<path d="M26.5 53C41.1355 53 53 41.1355 53 26.5C53 11.8645 41.1355 0 26.5 0C11.8645 0 0 11.8645 0 26.5C0 41.1355 11.8645 53 26.5 53Z" fill="#0C64BB"/>
<path d="M38.2097 13.25H42.9962L33.0339 23.1163C31.2921 24.8324 28.9451 25.7943 26.5 25.7943C24.0549 25.7943 21.7079 24.8324 19.9661 23.1163L9.99547 13.25H14.7903L22.3594 20.7412C23.4616 21.8291 24.948 22.4391 26.4967 22.4391C28.0454 22.4391 29.5318 21.8291 30.634 20.7412L38.2097 13.25ZM14.7323 40.6825H9.9375L19.9661 30.7566C21.7079 29.0405 24.0549 28.0785 26.5 28.0785C28.9451 28.0785 31.2921 29.0405 33.0339 30.7566L43.0625 40.6808H38.2677L30.6406 33.125C29.5384 32.0371 28.052 31.4271 26.5033 31.4271C24.9546 31.4271 23.4682 32.0371 22.366 33.125L14.7307 40.6825H14.7323Z" fill="white"/>
<path d="M65.4648 36V18.9375H69.8828C70.6719 18.9375 71.4102 19.0352 72.0977 19.2305C72.7852 19.418 73.4102 19.6875 73.9727 20.0391C74.4648 20.3281 74.9023 20.6836 75.2852 21.1055C75.6758 21.5195 76.0156 21.9727 76.3047 22.4648C76.6406 23.0664 76.8984 23.7305 77.0781 24.457C77.2656 25.1836 77.3594 25.957 77.3594 26.7773V28.1836C77.3594 28.9727 77.2734 29.7188 77.1016 30.4219C76.9297 31.125 76.6875 31.7695 76.375 32.3555C76.0781 32.8789 75.7305 33.3633 75.332 33.8086C74.9336 34.2461 74.4961 34.6133 74.0195 34.9102C73.4648 35.2617 72.8516 35.5312 72.1797 35.7188C71.5156 35.9062 70.8047 36 70.0469 36H65.4648ZM68.7812 21.6094V33.3516H70.0469C70.4531 33.3516 70.832 33.3008 71.1836 33.1992C71.5352 33.0977 71.8555 32.9492 72.1445 32.7539C72.4414 32.5508 72.707 32.293 72.9414 31.9805C73.1836 31.6602 73.3906 31.2891 73.5625 30.8672C73.7031 30.5 73.8086 30.0938 73.8789 29.6484C73.957 29.1953 73.9961 28.707 73.9961 28.1836V26.7539C73.9961 26.2617 73.957 25.7969 73.8789 25.3594C73.8086 24.9141 73.7031 24.5078 73.5625 24.1406C73.3906 23.7031 73.1641 23.3125 72.8828 22.9688C72.6094 22.625 72.2891 22.3438 71.9219 22.125C71.6406 21.9609 71.3281 21.8359 70.9844 21.75C70.6484 21.6562 70.2812 21.6094 69.8828 21.6094H68.7812ZM91.0483 21.6211H85.7866V36H82.4819V21.6211H77.2905V18.9375H91.0483V21.6211ZM108.5 18.9375L110.118 25.3477L111.957 18.9375H116.047V36H113.024V30.9492L113.164 22.9688L110.926 30.375H109.297L107.293 23.2852L107.434 30.9492V36H104.41V18.9375H108.5ZM117.103 29.543C117.103 28.6211 117.236 27.7695 117.502 26.9883C117.767 26.1992 118.158 25.5156 118.674 24.9375C119.181 24.3594 119.802 23.9062 120.537 23.5781C121.279 23.25 122.127 23.0859 123.08 23.0859C124.033 23.0859 124.881 23.25 125.623 23.5781C126.365 23.9062 126.994 24.3594 127.51 24.9375C128.017 25.5156 128.404 26.1992 128.67 26.9883C128.935 27.7695 129.068 28.6211 129.068 29.543V29.7891C129.068 30.7188 128.935 31.5781 128.67 32.3672C128.404 33.1484 128.017 33.8281 127.51 34.4062C127.002 34.9844 126.377 35.4375 125.635 35.7656C124.892 36.0859 124.049 36.2461 123.103 36.2461C122.15 36.2461 121.299 36.0859 120.549 35.7656C119.806 35.4375 119.181 34.9844 118.674 34.4062C118.158 33.8281 117.767 33.1484 117.502 32.3672C117.236 31.5781 117.103 30.7188 117.103 29.7891V29.543ZM120.361 29.7891C120.361 30.3203 120.412 30.8203 120.513 31.2891C120.615 31.75 120.775 32.1523 120.994 32.4961C121.213 32.8477 121.494 33.125 121.838 33.3281C122.189 33.5312 122.611 33.6328 123.103 33.6328C123.58 33.6328 123.99 33.5312 124.334 33.3281C124.677 33.125 124.959 32.8477 125.177 32.4961C125.388 32.1523 125.545 31.75 125.646 31.2891C125.748 30.8203 125.799 30.3203 125.799 29.7891V29.543C125.799 29.0273 125.748 28.5391 125.646 28.0781C125.545 27.6172 125.388 27.2109 125.177 26.8594C124.959 26.5078 124.677 26.2305 124.334 26.0273C123.99 25.8242 123.572 25.7227 123.08 25.7227C122.595 25.7227 122.181 25.8242 121.838 26.0273C121.494 26.2305 121.213 26.5078 120.994 26.8594C120.775 27.2109 120.615 27.6172 120.513 28.0781C120.412 28.5391 120.361 29.0273 120.361 29.543V29.7891ZM130.523 36V23.3203H133.476L133.675 25.0781C133.839 24.8438 134.019 24.6289 134.214 24.4336C134.409 24.2383 134.616 24.0625 134.835 23.9062C135.21 23.6406 135.62 23.4375 136.066 23.2969C136.511 23.1562 136.984 23.0859 137.484 23.0859C138.124 23.0859 138.71 23.1797 139.241 23.3672C139.773 23.5547 140.234 23.8516 140.624 24.2578C141.007 24.6719 141.304 25.2031 141.515 25.8516C141.734 26.4922 141.843 27.2734 141.843 28.1953V36H138.585V28.2422C138.585 27.7422 138.527 27.332 138.409 27.0117C138.3 26.6836 138.14 26.4258 137.929 26.2383C137.718 26.0508 137.464 25.9219 137.167 25.8516C136.87 25.7734 136.534 25.7344 136.159 25.7344C135.847 25.7344 135.558 25.7695 135.292 25.8398C135.034 25.9102 134.804 26.0156 134.601 26.1562C134.437 26.2578 134.288 26.3789 134.155 26.5195C134.023 26.6602 133.902 26.8164 133.792 26.9883V36H130.523ZM149.649 36.2344C148.673 36.2344 147.786 36.0742 146.989 35.7539C146.192 35.4336 145.508 34.9961 144.938 34.4414C144.368 33.8945 143.926 33.25 143.614 32.5078C143.309 31.7578 143.157 30.957 143.157 30.1055V29.6367C143.157 28.668 143.309 27.7852 143.614 26.9883C143.919 26.1836 144.344 25.4922 144.891 24.9141C145.438 24.3359 146.087 23.8867 146.837 23.5664C147.587 23.2461 148.403 23.0859 149.286 23.0859C150.2 23.0859 151.012 23.2383 151.723 23.543C152.442 23.8398 153.051 24.2617 153.551 24.8086C154.044 25.3555 154.419 26.0156 154.676 26.7891C154.934 27.5547 155.063 28.4023 155.063 29.332V30.7148H146.462V30.75C146.571 31.2578 146.712 31.668 146.883 31.9805C147.055 32.2852 147.286 32.5625 147.575 32.8125C147.872 33.0703 148.212 33.2695 148.594 33.4102C148.977 33.5508 149.395 33.6211 149.848 33.6211C150.489 33.6211 151.11 33.5 151.712 33.2578C152.313 33.0156 152.801 32.6523 153.176 32.168L154.805 33.9258C154.391 34.5117 153.735 35.043 152.837 35.5195C151.938 35.9961 150.876 36.2344 149.649 36.2344ZM149.262 25.7227C148.895 25.7227 148.559 25.7891 148.255 25.9219C147.95 26.0469 147.684 26.2305 147.458 26.4727C147.223 26.7148 147.028 27.0039 146.872 27.3398C146.715 27.6758 146.598 28.0508 146.52 28.4648H151.864V28.207C151.864 27.8633 151.801 27.5391 151.676 27.2344C151.551 26.9297 151.38 26.6641 151.161 26.4375C150.942 26.2188 150.673 26.0469 150.352 25.9219C150.04 25.7891 149.676 25.7227 149.262 25.7227ZM158.475 41.1211C158.162 41.1211 157.889 41.1016 157.654 41.0625C157.428 41.0234 157.174 40.9648 156.893 40.8867L157.291 38.4023C157.424 38.4023 157.592 38.4062 157.795 38.4141C158.006 38.4297 158.174 38.4375 158.299 38.4375C158.557 38.4375 158.783 38.3555 158.979 38.1914C159.182 38.0352 159.354 37.8633 159.494 37.6758C159.635 37.4883 159.736 37.3477 159.799 37.2539C159.869 37.1602 159.951 37.0273 160.045 36.8555L160.795 35.4609L155.428 23.3203H158.99L161.897 30.75L162.248 32.0391L162.729 30.7734L165.623 23.3203H169.221L162.787 37.8984C162.647 38.2188 162.463 38.5664 162.236 38.9414C162.018 39.3164 161.74 39.6641 161.404 39.9844C161.068 40.3047 160.658 40.5742 160.174 40.793C159.697 41.0117 159.131 41.1211 158.475 41.1211Z" fill="white"/>
</svg>
